<svg width="32" height="32" viewBox="0 0 32 32" fill="none" xmlns="http://www.w3.org/2000/svg">
  <rect width="32" height="32" rx="8" fill="url(#gradient)"/>
  <path d="M6 9C6 7.89543 6.89543 7 8 7H24C25.1046 7 26 7.89543 26 9V17C26 18.1046 25.1046 19 24 19H12L8 23V19C6.89543 19 6 18.1046 6 17V9Z" fill="white" fill-opacity="0.95"/>
  <circle cx="11" cy="12.5" r="1" fill="#3B82F6"/>
  <circle cx="16" cy="12.5" r="1" fill="#3B82F6"/>
  <circle cx="21" cy="12.5" r="1" fill="#3B82F6"/>
  <path d="M12 12.5H15M17 12.5H20" stroke="#3B82F6" stroke-width="1" stroke-linecap="round"/>
  <circle cx="13.5" cy="15" r="0.5" fill="#60A5FA" fill-opacity="0.8"/>
  <circle cx="18.5" cy="15" r="0.5" fill="#60A5FA" fill-opacity="0.8"/>
  <defs>
    <linearGradient id="gradient" x1="0%" y1="0%" x2="100%" y2="100%">
      <stop offset="0%" style="stop-color:#3B82F6"/>
      <stop offset="100%" style="stop-color:#1D4ED8"/>
    </linearGradient>
  </defs>
</svg>
