<svg width="1200" height="630" viewBox="0 0 1200 630" fill="none" xmlns="http://www.w3.org/2000/svg">
<!-- Background gradient -->
<rect width="1200" height="630" fill="url(#background)"/>

<!-- Hero section -->
<g transform="translate(100,150)">
  <!-- Logo -->
  <rect width="80" height="80" rx="20" fill="white" fill-opacity="0.1"/>
  <path d="M20 32C20 27.582 23.582 24 28 24H72C76.418 24 80 27.582 80 32V48C80 52.418 76.418 56 72 56H40L28 68V56C23.582 56 20 52.418 20 48V32Z" fill="white"/>
  <circle cx="36" cy="40" r="3" fill="#3B82F6"/>
  <circle cx="50" cy="40" r="3" fill="#3B82F6"/>
  <circle cx="64" cy="40" r="3" fill="#3B82F6"/>
</g>

<!-- Title -->
<text x="220" y="220" font-family="-apple-system, BlinkMacSystemFont, 'Segoe UI', Roboto, sans-serif" font-size="64" font-weight="700" fill="white">AutoComment.AI</text>

<!-- Subtitle -->
<text x="220" y="280" font-family="-apple-system, BlinkMacSystemFont, 'Segoe UI', Roboto, sans-serif" font-size="32" font-weight="400" fill="white" fill-opacity="0.9">AI-Powered LinkedIn Comment Suggestions</text>

<!-- Description -->
<text x="220" y="344" font-family="-apple-system, BlinkMacSystemFont, 'Segoe UI', Roboto, sans-serif" font-size="24" fill="white" fill-opacity="0.8">Generate intelligent LinkedIn comments that sound authentically you.</text>
<text x="220" y="384" font-family="-apple-system, BlinkMacSystemFont, 'Segoe UI', Roboto, sans-serif" font-size="24" fill="white" fill-opacity="0.8">Build meaningful connections with AI-powered networking.</text>

<!-- Accent elements -->
<rect x="900" y="100" width="200" height="200" rx="20" fill="white" fill-opacity="0.1"/>
<circle cx="1050" cy="400" r="80" fill="white" fill-opacity="0.05"/>

<defs>
<linearGradient id="background" x1="0%" y1="0%" x2="100%" y2="100%">
<stop offset="0%" style="stop-color:#1B273F"/>
<stop offset="50%" style="stop-color:#1B3B6F"/>
<stop offset="100%" style="stop-color:#123562"/>
</linearGradient>
</defs>
</svg>
